{
    "accessors": {
        "accessor_buffer_Plane.001_0": {
            "bufferView": "bufferView_buffer_Plane.001_0",
            "byteOffset": 0,
            "byteStride": 24,
            "componentType": 5126,
            "count": 792,
            "max": [
                1.0743074417114258,
                2.131985664367676,
                0.18188998103141785
            ],
            "min": [
                0.04808992147445679,
                -2.033299446105957,
                -5.298735618591309
            ],
            "type": "VEC3"
        },
        "accessor_buffer_Plane.001_1": {
            "bufferView": "bufferView_buffer_Plane.001_0",
            "byteOffset": 12,
            "byteStride": 24,
            "componentType": 5126,
            "count": 792,
            "max": [
                0.9999577403068542,
                0.9999997615814209,
                0.9999042749404907
            ],
            "min": [
                -0.9999576807022095,
                -0.9999997019767761,
                -0.9999997615814209
            ],
            "type": "VEC3"
        },
        "accessor_buffer_Plane.001_2": {
            "bufferView": "bufferView_buffer_Plane.001_1",
            "byteOffset": 0,
            "byteStride": 2,
            "componentType": 5123,
            "count": 1188,
            "max": [
                791
            ],
            "min": [
                0
            ],
            "type": "SCALAR"
        }
    },
    "asset": {
        "profile": {
            "api": "WebGL",
            "version": "1.0.3"
        },
        "version": "1.0"
    },
    "bufferViews": {
        "bufferView_buffer_Plane.001_0": {
            "buffer": "buffer_combined",
            "byteLength": 19008,
            "byteOffset": 0,
            "target": 34962
        },
        "bufferView_buffer_Plane.001_1": {
            "buffer": "buffer_combined",
            "byteLength": 2376,
            "byteOffset": 19008,
            "target": 34963
        },
        "bufferView_buffer_Plane.001_2": {
            "buffer": "buffer_combined",
            "byteLength": 0,
            "byteOffset": 21384,
            "target": 34963
        },
        "bufferView_buffer_Plane.001_3": {
            "buffer": "buffer_combined",
            "byteLength": 0,
            "byteOffset": 21384,
            "target": 34963
        },
        "bufferView_buffer_Plane.001_4": {
            "buffer": "buffer_combined",
            "byteLength": 0,
            "byteOffset": 21384,
            "target": 34963
        },
        "bufferView_buffer_Plane.001_5": {
            "buffer": "buffer_combined",
            "byteLength": 0,
            "byteOffset": 21384,
            "target": 34963
        }
    },
    "buffers": {
        "buffer_combined": {
            "byteLength": 21384,
            "type": "arraybuffer",
            "uri": "data:text/plain;base64,"
        }
    },
    "materials": {
        "material_Material.001": {
            "technique": "technique_Material.001",
            "values": {}
        },
        "material_Material.002": {
            "technique": "technique_Material.002",
            "values": {}
        },
        "material_Material.003": {
            "technique": "technique_Material.003",
            "values": {}
        },
        "material_Material.006": {
            "technique": "technique_Material.006",
            "values": {}
        },
        "material_Material.007": {
            "technique": "technique_Material.007",
            "values": {}
        }
    },
    "meshes": {
        "mesh_Plane.001": {
            "name": "Plane.001",
            "primitives": [
                {
                    "attributes": {
                        "NORMAL": "accessor_buffer_Plane.001_1",
                        "POSITION": "accessor_buffer_Plane.001_0"
                    },
                    "indices": "accessor_buffer_Plane.001_2",
                    "material": "material_Material.006",
                    "mode": 4
                },
                {
                    "attributes": {
                        "NORMAL": "accessor_buffer_Plane.001_1",
                        "POSITION": "accessor_buffer_Plane.001_0"
                    },
                    "indices": "accessor_buffer_Plane.001_3",
                    "material": "material_Material.007",
                    "mode": 4
                },
                {
                    "attributes": {
                        "NORMAL": "accessor_buffer_Plane.001_1",
                        "POSITION": "accessor_buffer_Plane.001_0"
                    },
                    "indices": "accessor_buffer_Plane.001_4",
                    "material": "material_Material.002",
                    "mode": 4
                },
                {
                    "attributes": {
                        "NORMAL": "accessor_buffer_Plane.001_1",
                        "POSITION": "accessor_buffer_Plane.001_0"
                    },
                    "indices": "accessor_buffer_Plane.001_5",
                    "material": "material_Material.001",
                    "mode": 4
                },
                {
                    "attributes": {
                        "NORMAL": "accessor_buffer_Plane.001_1",
                        "POSITION": "accessor_buffer_Plane.001_0"
                    },
                    "indices": "accessor_buffer_Plane.001_6",
                    "material": "material_Material.003",
                    "mode": 4
                }
            ]
        }
    },
    "nodes": {
        "node_Plane.001": {
            "children": [],
            "matrix": [
                1.0,
                0.0,
                0.0,
                0.0,
                0.0,
                1.0,
                0.0,
                0.0,
                0.0,
                0.0,
                1.0,
                0.0,
                0.0,
                0.0,
                0.0,
                1.0
            ],
            "meshes": [
                "mesh_Plane.001"
            ],
            "name": "Plane.001"
        },
        "node_scene_Scene_root": {
            "children": [
                "node_Plane.001"
            ],
            "matrix": [
                0.0,
                0.0,
                1.0,
                0.0,
                1.0,
                0.0,
                0.0,
                0.0,
                0.0,
                1.0,
                0.0,
                0.0,
                0.0,
                0.0,
                0.0,
                1.0
            ],
            "name": "node_scene_Scene_root"
        }
    },
    "programs": {
        "program_Material.001": {
            "attributes": [
                "bl_Vertex",
                "bl_Normal"
            ],
            "fragmentShader": "shader_Material.001_FS",
            "vertexShader": "shader_Material.001_VS"
        },
        "program_Material.002": {
            "attributes": [
                "bl_Vertex",
                "bl_Normal"
            ],
            "fragmentShader": "shader_Material.002_FS",
            "vertexShader": "shader_Material.002_VS"
        },
        "program_Material.003": {
            "attributes": [
                "bl_Vertex",
                "bl_Normal"
            ],
            "fragmentShader": "shader_Material.003_FS",
            "vertexShader": "shader_Material.003_VS"
        },
        "program_Material.006": {
            "attributes": [
                "bl_Vertex",
                "bl_Normal"
            ],
            "fragmentShader": "shader_Material.006_FS",
            "vertexShader": "shader_Material.006_VS"
        },
        "program_Material.007": {
            "attributes": [
                "bl_Vertex",
                "bl_Normal"
            ],
            "fragmentShader": "shader_Material.007_FS",
            "vertexShader": "shader_Material.007_VS"
        }
    },
    "samplers": {
        "sampler_default": {}
    },
    "scene": "scene_Scene",
    "scenes": {
        "scene_Scene": {
            "extras": {
                "active_camera": "camera_Camera",
                "background_color": [
                    0.05087608844041824,
                    0.05087608844041824,
                    0.05087608844041824
                ],
                "frames_per_second": 24
            },
            "name": "Scene",
            "nodes": [
                "node_scene_Scene_root"
            ]
        }
    },
    "shaders": {
        "shader_Material.001_FS": {
            "type": 35632,
            "uri": "Material_001FS.glsl"
        },
        "shader_Material.001_VS": {
            "type": 35633,
            "uri": "Material_001VS.glsl"
        },
        "shader_Material.002_FS": {
            "type": 35632,
            "uri": "Material_002FS.glsl"
        },
        "shader_Material.002_VS": {
            "type": 35633,
            "uri": "Material_002VS.glsl"
        },
        "shader_Material.003_FS": {
            "type": 35632,
            "uri": "Material_003FS.glsl"
        },
        "shader_Material.003_VS": {
            "type": 35633,
            "uri": "Material_003VS.glsl"
        },
        "shader_Material.006_FS": {
            "type": 35632,
            "uri": "Material_006FS.glsl"
        },
        "shader_Material.006_VS": {
            "type": 35633,
            "uri": "Material_006VS.glsl"
        },
        "shader_Material.007_FS": {
            "type": 35632,
            "uri": "Material_007FS.glsl"
        },
        "shader_Material.007_VS": {
            "type": 35633,
            "uri": "Material_007VS.glsl"
        }
    },
    "techniques": {
        "technique_Material.001": {
            "attributes": {
                "bl_Normal": "bl_Normal",
                "bl_Vertex": "bl_Vertex"
            },
            "parameters": {
                "bl_ModelViewMatrix": {
                    "semantic": "MODELVIEW",
                    "type": 35676
                },
                "bl_Normal": {
                    "semantic": "NORMAL",
                    "type": 35665
                },
                "bl_NormalMatrix": {
                    "semantic": "MODELVIEWINVERSETRANSPOSE",
                    "type": 35675
                },
                "bl_ProjectionMatrix": {
                    "semantic": "PROJECTION",
                    "type": 35676
                },
                "bl_Vertex": {
                    "semantic": "POSITION",
                    "type": 35666
                }
            },
            "program": "program_Material.001",
            "uniforms": {
                "bl_ModelViewMatrix": "bl_ModelViewMatrix",
                "bl_NormalMatrix": "bl_NormalMatrix",
                "bl_ProjectionMatrix": "bl_ProjectionMatrix"
            }
        },
        "technique_Material.002": {
            "attributes": {
                "bl_Normal": "bl_Normal",
                "bl_Vertex": "bl_Vertex"
            },
            "parameters": {
                "bl_ModelViewMatrix": {
                    "semantic": "MODELVIEW",
                    "type": 35676
                },
                "bl_Normal": {
                    "semantic": "NORMAL",
                    "type": 35665
                },
                "bl_NormalMatrix": {
                    "semantic": "MODELVIEWINVERSETRANSPOSE",
                    "type": 35675
                },
                "bl_ProjectionMatrix": {
                    "semantic": "PROJECTION",
                    "type": 35676
                },
                "bl_Vertex": {
                    "semantic": "POSITION",
                    "type": 35666
                }
            },
            "program": "program_Material.002",
            "uniforms": {
                "bl_ModelViewMatrix": "bl_ModelViewMatrix",
                "bl_NormalMatrix": "bl_NormalMatrix",
                "bl_ProjectionMatrix": "bl_ProjectionMatrix"
            }
        },
        "technique_Material.003": {
            "attributes": {
                "bl_Normal": "bl_Normal",
                "bl_Vertex": "bl_Vertex"
            },
            "parameters": {
                "bl_ModelViewMatrix": {
                    "semantic": "MODELVIEW",
                    "type": 35676
                },
                "bl_Normal": {
                    "semantic": "NORMAL",
                    "type": 35665
                },
                "bl_NormalMatrix": {
                    "semantic": "MODELVIEWINVERSETRANSPOSE",
                    "type": 35675
                },
                "bl_ProjectionMatrix": {
                    "semantic": "PROJECTION",
                    "type": 35676
                },
                "bl_Vertex": {
                    "semantic": "POSITION",
                    "type": 35666
                }
            },
            "program": "program_Material.003",
            "uniforms": {
                "bl_ModelViewMatrix": "bl_ModelViewMatrix",
                "bl_NormalMatrix": "bl_NormalMatrix",
                "bl_ProjectionMatrix": "bl_ProjectionMatrix"
            }
        },
        "technique_Material.006": {
            "attributes": {
                "bl_Normal": "bl_Normal",
                "bl_Vertex": "bl_Vertex"
            },
            "parameters": {
                "bl_ModelViewMatrix": {
                    "semantic": "MODELVIEW",
                    "type": 35676
                },
                "bl_Normal": {
                    "semantic": "NORMAL",
                    "type": 35665
                },
                "bl_NormalMatrix": {
                    "semantic": "MODELVIEWINVERSETRANSPOSE",
                    "type": 35675
                },
                "bl_ProjectionMatrix": {
                    "semantic": "PROJECTION",
                    "type": 35676
                },
                "bl_Vertex": {
                    "semantic": "POSITION",
                    "type": 35666
                }
            },
            "program": "program_Material.006",
            "uniforms": {
                "bl_ModelViewMatrix": "bl_ModelViewMatrix",
                "bl_NormalMatrix": "bl_NormalMatrix",
                "bl_ProjectionMatrix": "bl_ProjectionMatrix"
            }
        },
        "technique_Material.007": {
            "attributes": {
                "bl_Normal": "bl_Normal",
                "bl_Vertex": "bl_Vertex"
            },
            "parameters": {
                "bl_ModelViewMatrix": {
                    "semantic": "MODELVIEW",
                    "type": 35676
                },
                "bl_Normal": {
                    "semantic": "NORMAL",
                    "type": 35665
                },
                "bl_NormalMatrix": {
                    "semantic": "MODELVIEWINVERSETRANSPOSE",
                    "type": 35675
                },
                "bl_ProjectionMatrix": {
                    "semantic": "PROJECTION",
                    "type": 35676
                },
                "bl_Vertex": {
                    "semantic": "POSITION",
                    "type": 35666
                }
            },
            "program": "program_Material.007",
            "uniforms": {
                "bl_ModelViewMatrix": "bl_ModelViewMatrix",
                "bl_NormalMatrix": "bl_NormalMatrix",
                "bl_ProjectionMatrix": "bl_ProjectionMatrix"
            }
        }
    }
}
